<svg xmlns="http://www.w3.org/2000/svg"><symbol id="icon-search" viewBox="0 0 18 18"><path fill-rule="evenodd" clip-rule="evenodd" d="M3.75 8.25a4.5 4.5 0 119 0 4.5 4.5 0 01-9 0m11.78 6.22l-2.55-2.55a6 6 0 10-1.06 1.06l2.55 2.55a.75.75 0 101.06-1.06"/></symbol><symbol id="icon-create-nft" viewBox="0 0 24 24"><path d="M12 22V2M2 12h20" stroke="currentColor" stroke-width="2" stroke-linejoin="round"/></symbol><symbol id="icon-header-menu" viewBox="0 0 24 24"><path d="M2 12h20M2 4h20M2 20h20" stroke="currentColor" stroke-width="2" stroke-linejoin="round"/></symbol><symbol id="icon-header-menu-close" fill="none" viewBox="0 0 24 24"><path d="M4 20L20 4M4 4l16 16" stroke="currentColor" stroke-width="2" stroke-linejoin="round"/></symbol><symbol id="icon-share" viewBox="0 0 24 24"><path fill-rule="evenodd" clip-rule="evenodd" d="M18.16 15c-.78 0-1.48.33-2 .86l-7.5-3.52.02-.34-.03-.34 7.52-3.52c.51.53 1.21.86 1.99.86A2.93 2.93 0 0021 6c0-1.65-1.28-3-2.84-3a2.93 2.93 0 00-2.84 3l.03.33-7.52 3.53A2.76 2.76 0 005.84 9 2.93 2.93 0 003 12c0 1.65 1.28 3 2.84 3 .78 0 1.48-.33 2-.86l7.5 3.52-.02.34c0 1.65 1.27 3 2.84 3A2.93 2.93 0 0021 18c0-1.65-1.28-3-2.84-3"/></symbol><symbol id="icon-verified" viewBox="0 0 7 7"><path fill-rule="evenodd" clip-rule="evenodd" d="M2.912 5.15a.275.275 0 01-.2-.086L1.375 3.639a.275.275 0 11.4-.376L2.91 4.47l2.312-2.53a.275.275 0 01.406.37L3.115 5.06a.274.274 0 01-.2.09h-.003z"/></symbol><symbol id="icon-github" viewBox="0 0 24 24"><path fill-rule="evenodd" clip-rule="evenodd" d="M12 1C5.93 1 1 5.82 1 11.77c0 4.75 3.15 8.79 7.52 10.21.55.1.75-.23.75-.52l-.01-1.83c-3.06.65-3.7-1.44-3.7-1.44-.5-1.25-1.23-1.58-1.23-1.58-1-.66.08-.65.08-.65 1.1.07 1.68 1.1 1.68 1.1.98 1.65 2.58 1.18 3.2.9.1-.7.39-1.17.7-1.44-2.44-.27-5-1.2-5-5.32 0-1.17.42-2.13 1.12-2.89a3.8 3.8 0 01.11-2.85s.93-.28 3.03 1.1a10.77 10.77 0 015.5 0c2.1-1.38 3.03-1.1 3.03-1.1.6 1.49.22 2.58.1 2.85a4.1 4.1 0 011.14 2.9c0 4.13-2.58 5.04-5.03 5.3.4.34.75 1 .75 2l-.01 2.95c0 .29.2.63.75.52A10.8 10.8 0 0023 11.77C23 5.82 18.07 1 12 1"/></symbol><symbol id="icon-google" viewBox="0 0 24 24"><path fill-rule="evenodd" clip-rule="evenodd" d="M17.5 13.98a5.51 5.51 0 01-4.54 3.95 6.15 6.15 0 01-6.94-5.45 6 6 0 018.25-6.04c.24.1.52.02.64-.21l1.44-2.65a.5.5 0 00-.23-.7A10 10 0 002 12.28 10.1 10.1 0 0011.57 22a10 10 0 0010.42-9.47V10.5a.5.5 0 00-.5-.5h-9a.5.5 0 00-.5.5v2.98c0 .28.23.5.5.5h5"/></symbol><symbol id="icon-twitter" viewBox="0 0 24 24"><path fill-rule="evenodd" clip-rule="evenodd" d="M8.08 20c7.24 0 11.43-5.63 11.43-10.96 0-.15 1.03-1.04 1.48-2.88a.44.44 0 00-.62-.51c-.88.4-1.77.08-2.16-.38a3.87 3.87 0 00-5.58-.17 4.11 4.11 0 00-1.14 3.86C8.14 9.2 5.84 7.6 3.95 5.43c-.24-.28-.7-.13-.75.24-.28 2.08-.37 7.15 4.65 10.05-.87 1.26-2.58 2-4.47 2.31-.42.07-.52.65-.14.84C4.74 19.61 6.4 20 8.08 20"/></symbol><symbol id="icon-linkedin" viewBox="0 0 24 24"><path fill-rule="evenodd" clip-rule="evenodd" d="M3 5.25a2.25 2.25 0 114.5 0 2.25 2.25 0 01-4.5 0zM15.15 8.4a5.83 5.83 0 00-5.85 5.81v5.89c0 .5.4.9.9.9h2.1c.5 0 .9-.4.9-.9v-5.9c0-1.13.98-2.04 2.15-1.92 1.02.1 1.75 1.03 1.75 2.04v5.77c0 .5.4.9.9.9h2.1c.5 0 .9-.4.9-.9V14.2a5.83 5.83 0 00-5.85-5.81zm-8.55.9H3.9c-.5 0-.9.4-.9.9v9.9c0 .5.4.9.9.9h2.7c.5 0 .9-.4.9-.9v-9.9c0-.5-.4-.9-.9-.9z"/></symbol><symbol id="icon-facebook" viewBox="0 0 24 24"><path fill-rule="evenodd" clip-rule="evenodd" d="M17 3.5a.5.5 0 00-.5-.5H14c-2.76 0-5 2.01-5 4.5v2.7H6.5a.5.5 0 00-.5.5v2.6c0 .28.22.5.5.5H9v6.7c0 .28.22.5.5.5h3a.5.5 0 00.5-.5v-6.7h2.62a.5.5 0 00.48-.37l.72-2.6a.5.5 0 00-.48-.63H13V7.5c0-.5.45-.9 1-.9h2.5a.5.5 0 00.5-.5V3.5z"/></symbol><symbol id="icon-email" viewBox="0 0 24 24"><path fill-rule="evenodd" clip-rule="evenodd" d="M19 6l-6.5 4.5a1 1 0 01-1 0L5 6h14zm0-2H5a3 3 0 00-3 3v10a3 3 0 003 3h14a3 3 0 003-3V7a3 3 0 00-3-3z"/></symbol><symbol id="icon-link" viewBox="0 0 24 24"><path fill-rule="evenodd" clip-rule="evenodd" d="M11.53 3.9c2.18-2.19 5.7-2.58 8.13-.68a6.06 6.06 0 01.58 9.06L18.8 13.7a1 1 0 01-1.42-1.43l1.42-1.42a4.04 4.04 0 00-.27-5.95c-1.63-1.36-4.07-1.1-5.57.4L11.7 6.58a1 1 0 01-1.42 0c-.4-.4-.4-1.03.17-1.6l1.08-1.08zm1.76 5.4l-4 4a1 1 0 101.42 1.4l4-4a1 1 0 10-1.42-1.4zm-1.01 8.1l-1.27 1.27c-1.5 1.5-3.95 1.75-5.58.4a4.02 4.02 0 01-.27-5.94l1.42-1.42a1 1 0 10-1.42-1.42l-1.28 1.28a6.15 6.15 0 00-.67 8.07 6.06 6.06 0 009.07.6l1.43-1.42a1 1 0 10-1.43-1.42z"/></symbol><symbol id="icon-filter-settings" viewBox="0 0 20 20"><path fill-rule="evenodd" clip-rule="evenodd" d="M9.17 15.83a.83.83 0 110-1.66.83.83 0 010 1.66m8.33-1.66h-5.99a2.5 2.5 0 00-2.34-1.67c-1.09 0-2 .7-2.35 1.67H2.5a.83.83 0 100 1.66h4.32a2.5 2.5 0 002.35 1.67c1.08 0 2-.7 2.34-1.67h5.99a.83.83 0 100-1.66m-1.67-3.34a.83.83 0 110-1.66.83.83 0 010 1.66m0-3.33c-1.08 0-2 .7-2.34 1.67H2.5a.83.83 0 100 1.66h10.99a2.5 2.5 0 102.34-3.33m-10-3.33a.83.83 0 110 1.66.83.83 0 010-1.66M2.5 5.83h.99A2.5 2.5 0 005.83 7.5c1.09 0 2-.7 2.35-1.67h9.32a.83.83 0 100-1.66H8.18A2.5 2.5 0 005.83 2.5c-1.08 0-2 .7-2.34 1.67H2.5a.83.83 0 100 1.66"/></symbol><symbol id="icon-close" viewBox="0 0 20 20"><path fill-rule="evenodd" clip-rule="evenodd" d="M11.18 10l3.58-3.58a.83.83 0 10-1.18-1.18L10 8.82 6.42 5.24a.83.83 0 10-1.18 1.18L8.82 10l-3.58 3.58a.83.83 0 101.18 1.18L10 11.18l3.58 3.58a.83.83 0 001.18 0 .83.83 0 000-1.18L11.18 10z"/></symbol><symbol id="icon-follow" viewBox="0 0 20 20"><path fill-rule="evenodd" clip-rule="evenodd" d="M8.333 9.167a3.337 3.337 0 003.334-3.334A3.337 3.337 0 008.333 2.5 3.337 3.337 0 005 5.833a3.337 3.337 0 003.333 3.334zM17.5 5h-.833v-.833a.836.836 0 00-.834-.834.836.836 0 00-.833.834V5h-.833a.836.836 0 00-.834.833c0 .459.375.834.834.834H15V7.5c0 .458.375.833.833.833a.836.836 0 00.834-.833v-.833h.833a.836.836 0 00.833-.834A.836.836 0 0017.5 5zm-3.333 11.667c0 .46-.373.833-.834.833h-10a.833.833 0 01-.833-.833 5.84 5.84 0 015.833-5.834 5.84 5.84 0 015.834 5.834z" fill="currentColor"/></symbol><symbol id="icon-unfollow" viewBox="0 0 20 20"><path fill-rule="evenodd" clip-rule="evenodd" d="M8.333 9.167a3.337 3.337 0 003.334-3.334A3.337 3.337 0 008.333 2.5 3.337 3.337 0 005 5.833a3.337 3.337 0 003.333 3.334zM17.5 5h-3.333a.836.836 0 00-.834.833c0 .459.375.834.834.834H17.5a.836.836 0 00.833-.834A.836.836 0 0017.5 5zm-3.333 11.667c0 .46-.373.833-.834.833h-10a.833.833 0 01-.833-.833 5.84 5.84 0 015.833-5.834 5.84 5.84 0 015.834 5.834z" fill="currentColor"/></symbol><symbol id="icon-three-dots" viewBox="0 0 16 16"><circle cx="8" cy="8" r="1.67"/><circle cx="2.33" cy="8" r="1.67"/><circle cx="13.67" cy="8" r="1.67"/></symbol><symbol id="icon-log-out" viewBox="0 0 16 16"><path fill-rule="evenodd" clip-rule="evenodd" d="M5.334 3.333c0 .366-.3.666-.667.666H4v8h.667c.367 0 .667.3.667.667 0 .367-.3.667-.667.667H3.334a.669.669 0 01-.667-.667V3.333c0-.367.3-.667.667-.667h1.333c.367 0 .667.3.667.667zm6.669 1.616l1.876 2.667a.665.665 0 01-.012.783l-2 2.667a.665.665 0 11-1.067-.8l1.2-1.6H6.667a.666.666 0 110-1.333H12c.011 0 .021.003.032.006.008.002.017.005.026.006l-1.146-1.63a.666.666 0 111.09-.766z"/></symbol><symbol id="icon-edit" viewBox="0 0 24 24"><path fill-rule="evenodd" clip-rule="evenodd" d="M16 10.7L13.3 8l2-2L18 8.7l-2 2zm3.4-3.4l-2.7-2.7c-.8-.7-2-.8-2.8 0l-9 9a2 2 0 00-.5 1.1L4 19a1 1 0 001 1l4.3-.4a2 2 0 001.2-.6l9-9c.7-.7.7-1.9-.1-2.7z"/></symbol><symbol id="icon-chevron-left" viewBox="0 0 24 24"><path fill-rule="evenodd" clip-rule="evenodd" d="M14 19a1 1 0 00.77-1.64l-4.48-5.37 4.32-5.36a1 1 0 00-1.56-1.26l-4.83 6a1 1 0 00.01 1.27l5 6A1 1 0 0014 19"/></symbol><symbol id="icon-delete" viewBox="0 0 16 16"><path fill-rule="evenodd" clip-rule="evenodd" d="M6.667 2.885c0-.103.142-.219.333-.219h2c.19 0 .333.116.333.22V4H6.667V2.885zM14 4h-3.333V2.885c0-.856-.748-1.552-1.667-1.552H7c-.92 0-1.667.696-1.667 1.552V4H2a.67.67 0 00-.667.666c0 .367.3.667.667.667h.667v7.333c0 1.104.897 2 2 2h6.666c1.103 0 2-.896 2-2V5.333H14c.367 0 .667-.3.667-.667A.67.67 0 0014 4z"/></symbol><symbol id="icon-arrow-up" fill="none" viewBox="0 0 16 16"><path d="M3.33 8L8 3.33m0 0L12.67 8M8 3.33v9.34" stroke="currentColor" stroke-width="1.5" stroke-linecap="round" stroke-linejoin="round"/></symbol><symbol id="icon-arrow-left" viewBox="0 0 16 16" fill="none"><use href="#icon-arrow-up" transform="rotate(-90 8 8)" width="16" height="16"/></symbol><symbol id="icon-arrow-right" viewBox="0 0 16 16" fill="none"><use href="#icon-arrow-up" transform="rotate(90 8 8)" width="16" height="16"/></symbol><symbol id="icon-user-default" fill="none" viewBox="0 0 24 20"><circle cx="12" cy="4" r="4" fill="#fff" fill-opacity=".2"/><circle cx="12" cy="4" r="3.25" stroke="#fff" stroke-opacity=".5" stroke-width="1.5"/><path d="M6.05 12.44A6.51 6.51 0 0111.13 10h1.74c1.98 0 3.85.9 5.08 2.44A4.65 4.65 0 0114.32 20H9.68a4.65 4.65 0 01-3.63-7.56z" fill="#fff" fill-opacity=".2"/><path d="M6.63 12.91a5.76 5.76 0 014.5-2.16h1.74c1.75 0 3.4.8 4.5 2.16a3.9 3.9 0 01-3.05 6.34H9.68a3.9 3.9 0 01-3.05-6.34z" stroke="#fff" stroke-opacity=".5" stroke-width="1.5"/></symbol><symbol id="icon-dropdown-filter-x" viewBox="0 0 24 24" fill="none"><path d="M6 18L18 6M6 6l12 12" stroke="currentColor" stroke-width="2" stroke-linejoin="round"/></symbol></svg>