<svg xmlns="http://www.w3.org/2000/svg" fill="none" width="30" height="32"><path fill="url(#a)" d="M7.5 24H15v8H7.5z"/><path fill-rule="evenodd" clip-rule="evenodd" d="M15 0h3.7C25 0 30 5.4 30 12s-5 12-11.3 12H7.5V8H15v8h3.7c2.1 0 3.8-1.8 3.8-4s-1.7-4-3.8-4H15V0z" fill="url(#b)"/><path fill="url(#c)" d="M0 16h7.5v8H0z"/><path fill="url(#d)" d="M7.5 16H15v8H7.5z"/><defs><linearGradient id="a" x1="7.5" y1="26.4" x2="15.1" y2="29.4" gradientUnits="userSpaceOnUse"><stop stop-color="#3EFF6E"/><stop offset="1" stop-color="#16DDDE"/></linearGradient><linearGradient id="b" x1="7.5" y1="6.6" x2="32.5" y2="17.1" gradientUnits="userSpaceOnUse"><stop stop-color="#FF5B3C"/><stop offset="1" stop-color="#FF3196"/></linearGradient><linearGradient id="c" x1="0" y1="18.4" x2="7.6" y2="21.4" gradientUnits="userSpaceOnUse"><stop stop-color="#FF6F3F"/><stop offset="1" stop-color="#FFC546"/></linearGradient><linearGradient id="d" x1="7.5" y1="18.4" x2="15.1" y2="21.4" gradientUnits="userSpaceOnUse"><stop stop-color="#E059FE"/><stop offset="1" stop-color="#656FFF"/></linearGradient></defs></svg>