<svg fill="none" xmlns="http://www.w3.org/2000/svg" viewBox="0 0 273 273">
  <path
      d="M79.9 111c5.7-8 12-15.5 19-22.5C138.2 49.3 210.6 22 242 29.7a2.5 2.5 0 0 1 2 2c7.5 32.8-19.7 103.6-59 142.8-7 7-14.6 13.4-22.6 19m-82.4-82.4a71 71 0 0 0-34.5 4.3c-29.1 12.8-37.6 46.2-40 60.5a5.2 5.2 0 0 0 5.7 6l46.7-5.1m22-65.7-11 32.8m-11 32.9c0 3.5.2 7 .6 10.5.3 2.5 1.4 4.7 3 6.4l18.2 18.1c1.7 1.8 4 2.8 6.4 3 3.5.5 7 .7 10.5.7m-38.7-38.7 11-32.9m27.7 71.6-5.2 46.7a5.2 5.2 0 0 0 6 5.6c14.4-2.3 47.9-10.7 60.6-39.8a71.3 71.3 0 0 0 4.4-34.4m-65.8 22 32.9-11m32.9-11-33 11m-60.5-60.7 7.2 26.9a37.6 37.6 0 0 0 26.6 26.6l26.8 7.1m-74-16.3a26 26 0 0 0-15.2 7.4c-10.1 10.2-11.1 48-11.1 48s37.7-1 48-11.2c4-4 6.6-9.4 7.3-15.2"
      stroke="#fff" stroke-width="9" stroke-linecap="round"
      stroke-linejoin="round"/>
  <g filter="url(#a)">
    <circle cx="157.9" cy="115.6" r="29" transform="rotate(45 157.9 115.6)"
            fill="url(#b)"/>
  </g>
  <circle cx="157.9" cy="115.6" r="29" transform="rotate(45 157.9 115.6)"
          fill="url(#c)"/>
  <defs>
    <linearGradient id="b" x1="128.9" y1="102.5" x2="191.9" y2="131"
                    gradientUnits="userSpaceOnUse">
      <stop stop-color="#FF5B3C"/>
      <stop offset="1" stop-color="#FF3196"/>
    </linearGradient>
    <linearGradient id="c" x1="128.9" y1="102.5" x2="191.9" y2="131"
                    gradientUnits="userSpaceOnUse">
      <stop stop-color="#FF5B3C"/>
      <stop offset="1" stop-color="#FF3196"/>
    </linearGradient>
    <filter id="a" x="43" y=".8" width="229.6" height="229.6"
            filterUnits="userSpaceOnUse" color-interpolation-filters="sRGB">
      <feFlood flood-opacity="0" result="BackgroundImageFix"/>
      <feBlend in="SourceGraphic" in2="BackgroundImageFix" result="shape"/>
      <feGaussianBlur stdDeviation="42.9"
                      result="effect1_foregroundBlur_1541_94900"/>
    </filter>
  </defs>
</svg>
