<?xml version="1.0" standalone="no"?>
<!DOCTYPE svg PUBLIC "-//W3C//DTD SVG 20010904//EN"
 "http://www.w3.org/TR/2001/REC-SVG-20010904/DTD/svg10.dtd">
<svg version="1.0" xmlns="http://www.w3.org/2000/svg"
 width="512.000000pt" height="512.000000pt" viewBox="0 0 512.000000 512.000000"
 preserveAspectRatio="xMidYMid meet">
<metadata>
Created by potrace 1.14, written by Peter Selinger 2001-2017
</metadata>
<g transform="translate(0.000000,512.000000) scale(0.100000,-0.100000)"
fill="#000000" stroke="none">
<path d="M2560 4457 l0 -635 -622 0 c-343 0 -631 -1 -640 -1 -17 -1 -18 -38
-18 -634 l0 -634 -627 -1 c-346 0 -634 -1 -640 -1 -10 -1 -13 -134 -13 -630 0
-494 3 -630 13 -633 6 -2 294 -3 639 -3 l628 1 0 -633 0 -633 640 0 640 0 0
633 0 633 369 1 c415 1 457 3 651 37 242 42 549 178 759 335 41 31 83 63 95
71 41 29 223 216 276 284 138 176 244 374 314 587 38 117 52 172 81 339 13 72
12 396 -1 493 -27 203 -93 418 -185 601 -46 91 -133 234 -172 282 -141 175
-255 291 -351 359 -16 11 -33 25 -40 31 -74 69 -344 215 -486 264 -36 12 -74
26 -85 31 -24 10 -211 54 -273 64 -23 4 -54 9 -70 12 -15 3 -219 7 -454 10
l-428 5 0 -635z m716 -641 c235 -24 446 -192 526 -416 26 -72 31 -100 34 -196
11 -312 -198 -568 -521 -640 -16 -3 -193 -7 -392 -8 l-363 -3 0 632 c0 347 2
634 4 636 7 6 644 2 712 -5z"/>
</g>
</svg>
