<?xml version="1.0" encoding="UTF-8"?>
<svg xmlns="http://www.w3.org/2000/svg">
  <symbol id="icon-search" viewBox="0 0 18 18">
    <path fill-rule="evenodd" clip-rule="evenodd"
          d="M3.75 8.25a4.5 4.5 0 1 1 9 0 4.5 4.5 0 0 1-9 0m11.78 6.22-2.55-2.55a6 6 0 1 0-1.06 1.06l2.55 2.55a.75.75 0 1 0 1.06-1.06"/>
  </symbol>
  <symbol id="icon-create-nft" viewBox="0 0 24 24">
    <path d="M12 22V2" stroke="currentColor" stroke-width="2"
          stroke-linejoin="round"/>
    <path d="M2 12H22" stroke="currentColor" stroke-width="2"
          stroke-linejoin="round"/>
  </symbol>
  <symbol id="icon-header-menu" viewBox="0 0 24 24">
    <path d="M2 12h20M2 4h20M2 20h20" stroke="currentColor" stroke-width="2"
          stroke-linejoin="round"/>
  </symbol>
  <symbol id="icon-header-menu-close" fill="none" viewBox="0 0 24 24">
    <path d="M4 20 20 4M4 4l16 16" stroke="currentColor" stroke-width="2"
          stroke-linejoin="round"/>
  </symbol>
  <symbol id="icon-share" viewBox="0 0 24 24">
    <path fill-rule="evenodd" clip-rule="evenodd"
          d="M18.16 15c-.78 0-1.48.33-2 .86l-7.5-3.52.02-.34-.03-.34 7.52-3.52c.51.53 1.21.86 1.99.86A2.93 2.93 0 0 0 21 6c0-1.65-1.28-3-2.84-3a2.93 2.93 0 0 0-2.84 3l.03.33-7.52 3.53A2.76 2.76 0 0 0 5.84 9 2.93 2.93 0 0 0 3 12c0 1.65 1.28 3 2.84 3 .78 0 1.48-.33 2-.86l7.5 3.52-.02.34c0 1.65 1.27 3 2.84 3A2.93 2.93 0 0 0 21 18c0-1.65-1.28-3-2.84-3"/>
  </symbol>
  <symbol id="icon-verified" viewBox="0 0 7 7">
    <path fill-rule="evenodd" clip-rule="evenodd"
          d="M2.912 5.15a.275.275 0 0 1-.2-.086L1.375 3.639a.275.275 0 1 1 .4-.376L2.91 4.47l2.312-2.53a.275.275 0 0 1 .406.37L3.115 5.06a.274.274 0 0 1-.2.09h-.003Z"/>
  </symbol>
  <symbol id="icon-github" viewBox="0 0 24 24">
    <path fill-rule="evenodd" clip-rule="evenodd"
          d="M12 1C5.93 1 1 5.82 1 11.77c0 4.75 3.15 8.79 7.52 10.21.55.1.75-.23.75-.52l-.01-1.83c-3.06.65-3.7-1.44-3.7-1.44-.5-1.25-1.23-1.58-1.23-1.58-1-.66.08-.65.08-.65 1.1.07 1.68 1.1 1.68 1.1.98 1.65 2.58 1.18 3.2.9.1-.7.39-1.17.7-1.44-2.44-.27-5-1.2-5-5.32 0-1.17.42-2.13 1.12-2.89a3.8 3.8 0 0 1 .11-2.85s.93-.28 3.03 1.1a10.77 10.77 0 0 1 5.5 0c2.1-1.38 3.03-1.1 3.03-1.1.6 1.49.22 2.58.1 2.85a4.1 4.1 0 0 1 1.14 2.9c0 4.13-2.58 5.04-5.03 5.3.4.34.75 1 .75 2l-.01 2.95c0 .29.2.63.75.52A10.8 10.8 0 0 0 23 11.77C23 5.82 18.07 1 12 1"/>
  </symbol>
  <symbol id="icon-google" viewBox="0 0 24 24">
    <path fill-rule="evenodd" clip-rule="evenodd"
          d="M17.5 13.98a5.51 5.51 0 0 1-4.54 3.95 6.15 6.15 0 0 1-6.94-5.45 6 6 0 0 1 8.25-6.04c.24.1.52.02.64-.21l1.44-2.65a.5.5 0 0 0-.23-.7A10 10 0 0 0 2 12.28 10.1 10.1 0 0 0 11.57 22a10 10 0 0 0 10.42-9.47V10.5a.5.5 0 0 0-.5-.5h-9a.5.5 0 0 0-.5.5v2.98c0 .28.23.5.5.5h5"/>
  </symbol>
  <symbol id="icon-twitter" viewBox="0 0 24 24">
    <path fill-rule="evenodd" clip-rule="evenodd"
          d="M8.08 20c7.24 0 11.43-5.63 11.43-10.96 0-.15 1.03-1.04 1.48-2.88a.44.44 0 0 0-.62-.51c-.88.4-1.77.08-2.16-.38a3.87 3.87 0 0 0-5.58-.17 4.11 4.11 0 0 0-1.14 3.86C8.14 9.2 5.84 7.6 3.95 5.43c-.24-.28-.7-.13-.75.24-.28 2.08-.37 7.15 4.65 10.05-.87 1.26-2.58 2-4.47 2.31-.42.07-.52.65-.14.84C4.74 19.61 6.4 20 8.08 20"/>
  </symbol>
  <symbol id="icon-youtube" viewBox="0 0 24 24">
    <path
        d="m12.46 19.148-4.256-.078c-1.377-.027-2.758.027-4.11-.254-2.054-.42-2.2-2.478-2.352-4.204a29.492 29.492 0 0 1 .268-7.305c.223-1.35 1.103-2.157 2.464-2.244 4.594-.319 9.218-.28 13.8-.132.485.013.972.088 1.45.172 2.356.413 2.413 2.746 2.566 4.709a26.694 26.694 0 0 1-.203 5.947c-.234 1.632-.68 3-2.566 3.132-2.363.172-4.672.311-7.041.267 0-.01-.014-.01-.02-.01Zm-2.502-4.13c1.78-1.023 3.527-2.028 5.297-3.043-1.784-1.023-3.527-2.028-5.297-3.043v6.086Z"/>
  </symbol>
  <symbol id="icon-medium-dot-com" viewBox="0 0 24 24">
    <path fill-rule="evenodd"
          d="M3 3h18v18H3V3Zm4.143 5.625c.11.1.167.246.152.395v5.345a.615.615 0 0 1-.163.53l-1.27 1.54v.204h3.601v-.203l-1.27-1.541a.637.637 0 0 1-.175-.53V9.741l3.161 6.897h.367l2.716-6.897v5.497c0 .147 0 .175-.096.271l-.977.948v.204h4.742v-.204l-.943-.925a.282.282 0 0 1-.107-.271v-6.8a.282.282 0 0 1 .107-.272l.966-.925v-.203h-3.342l-2.383 5.942-2.71-5.942H6.015v.203l1.129 1.36Z"
          clip-rule="evenodd"/>
  </symbol>
  <symbol id="icon-instagram" viewBox="0 0 24 24">
    <path
        d="M12 7.38a4.62 4.62 0 1 0 0 9.24 4.62 4.62 0 0 0 0-9.24ZM12 15a3 3 0 1 1 0-6 3 3 0 0 1 0 6ZM16.8 8.29a1.08 1.08 0 1 0 0-2.16 1.08 1.08 0 0 0 0 2.16Z"/>
    <path
        d="M20.53 6.11a4.6 4.6 0 0 0-2.63-2.63 6.6 6.6 0 0 0-2.19-.42 65.8 65.8 0 0 0-3.7-.06c-2.45 0-2.76 0-3.72.06-.74.01-1.48.15-2.18.42A4.6 4.6 0 0 0 3.48 6.1c-.27.7-.4 1.44-.42 2.19C3.02 9.26 3 9.56 3 12c0 2.45 0 2.76.06 3.72.01.74.15 1.48.42 2.18a4.61 4.61 0 0 0 2.63 2.64c.7.27 1.44.42 2.19.45.96.04 1.26.05 3.7.05 2.45 0 2.76 0 3.72-.05a6.62 6.62 0 0 0 2.18-.42 4.61 4.61 0 0 0 2.64-2.64c.26-.7.4-1.43.41-2.18.05-.96.06-1.27.06-3.71s0-2.75-.06-3.71a6.58 6.58 0 0 0-.42-2.22Zm-1.21 9.53c-.01.58-.12 1.15-.32 1.7-.3.78-.92 1.4-1.7 1.7-.54.2-1.1.3-1.68.31-.95.05-1.22.06-3.65.06-2.44 0-2.69 0-3.66-.06-.57 0-1.13-.1-1.67-.3a2.98 2.98 0 0 1-1.71-1.72c-.2-.53-.3-1.1-.32-1.67-.04-.95-.05-1.22-.05-3.65 0-2.44 0-2.69.05-3.66.01-.57.11-1.14.31-1.68.31-.8.94-1.41 1.72-1.72a5 5 0 0 1 1.67-.3c.95-.05 1.22-.06 3.66-.06 2.43 0 2.68 0 3.65.05.57.01 1.14.12 1.67.31A3 3 0 0 1 19 6.67c.2.53.3 1.1.32 1.67.04.95.05 1.21.05 3.65s0 2.7-.04 3.65h-.01Z"/>
  </symbol>
  <symbol id="icon-linkedin" viewBox="0 0 24 24">
    <path fill-rule="evenodd" clip-rule="evenodd"
          d="M3 5.25a2.25 2.25 0 1 1 4.5 0 2.25 2.25 0 0 1-4.5 0ZM15.15 8.4a5.83 5.83 0 0 0-5.85 5.81v5.89c0 .5.4.9.9.9h2.1c.5 0 .9-.4.9-.9V14.2c0-1.13.98-2.04 2.15-1.92 1.02.1 1.75 1.03 1.75 2.04v5.77c0 .5.4.9.9.9h2.1c.5 0 .9-.4.9-.9V14.2a5.83 5.83 0 0 0-5.85-5.81Zm-8.55.9H3.9c-.5 0-.9.4-.9.9v9.9c0 .5.4.9.9.9h2.7c.5 0 .9-.4.9-.9v-9.9c0-.5-.4-.9-.9-.9Z"/>
  </symbol>
  <symbol id="icon-facebook" viewBox="0 0 24 24">
    <path fill-rule="evenodd" clip-rule="evenodd"
          d="M17 3.5a.5.5 0 0 0-.5-.5H14c-2.76 0-5 2.01-5 4.5v2.7H6.5a.5.5 0 0 0-.5.5v2.6c0 .28.22.5.5.5H9v6.7c0 .28.22.5.5.5h3a.5.5 0 0 0 .5-.5v-6.7h2.62a.5.5 0 0 0 .48-.37l.72-2.6a.5.5 0 0 0-.48-.63H13V7.5c0-.5.45-.9 1-.9h2.5a.5.5 0 0 0 .5-.5V3.5Z"/>
  </symbol>
  <symbol id="icon-telegram" viewBox="0 0 24 24">
    <path
        d="m9.85 14.65-.33 4.65c.47 0 .68-.2.92-.44l2.22-2.12 4.6 3.36c.84.47 1.44.23 1.66-.77l3.02-14.15c.27-1.24-.45-1.73-1.27-1.43l-17.74 6.8c-1.21.47-1.2 1.14-.2 1.45l4.53 1.4 10.53-6.58c.5-.33.95-.15.58.18l-8.52 7.65Z"/>
  </symbol>
  <symbol id="icon-email" viewBox="0 0 24 24">
    <path fill-rule="evenodd" clip-rule="evenodd"
          d="m19 6-6.5 4.5a1 1 0 0 1-1 0L5 6h14Zm0-2H5a3 3 0 0 0-3 3v10a3 3 0 0 0 3 3h14a3 3 0 0 0 3-3V7a3 3 0 0 0-3-3Z"/>
  </symbol>
  <symbol id="icon-telegram" viewBox="0 0 24 24">
    <path
        d="m9.85 14.65-.33 4.65c.47 0 .68-.2.92-.44l2.22-2.12 4.6 3.36c.84.47 1.44.23 1.66-.77l3.02-14.15c.27-1.24-.45-1.73-1.27-1.43l-17.74 6.8c-1.21.47-1.2 1.14-.2 1.45l4.53 1.4 10.53-6.58c.5-.33.95-.15.58.18l-8.52 7.65Z"/>
  </symbol>
  <symbol id="icon-telegram-announce" viewBox="0 0 32 24">
    <path d="m9.85 14.65-.33 4.65c.47 0 .68-.2.92-.44l2.22-2.12 4.6 3.36c.84.47 1.44.23 1.66-.77l3.02-14.15c.27-1.24-.45-1.73-1.27-1.43l-17.74 6.8c-1.21.47-1.2 1.14-.2 1.45l4.53 1.4 10.53-6.58c.5-.33.95-.15.58.18l-8.52 7.65ZM21.26 18.56c.16.3.5.46.83.4l-.73-1.26-.02-.07a.82.82 0 0 0-.08.93ZM24.64 18.69l-1.2.69 1.39 1.36a.66.66 0 0 0 1.12-.4.6.6 0 0 0-.2-.54l-1.11-1.11ZM21.33 17.62h.01v-.02.02ZM27.77 13.73l-.07.04.94 1.64.08-.04a.94.94 0 0 0-.95-1.64ZM21.64 17.54l.74 1.29c.2.33.63.44.97.24l1.65-.95-1.42-2.46-1.65.96c-.33.19-.48.6-.3.92ZM25.3 18l4.13-.6-3.03-5.25-2.59 3.28L25.3 18Z"/>
  </symbol>
  <symbol id="icon-globe" viewBox="0 0 24 24">
    <path fill-rule="evenodd" clip-rule="evenodd"
          d="M9.73 3.29A9 9 0 0 0 3.05 11h4a16.3 16.3 0 0 1 2.68-7.71Zm4.54 0A16.3 16.3 0 0 1 16.95 11h4a9 9 0 0 0-6.68-7.71Zm.67 7.71A14.3 14.3 0 0 0 12 3.55 14.3 14.3 0 0 0 9.06 11h5.88Zm-5.88 2h5.88A14.3 14.3 0 0 1 12 20.45 14.3 14.3 0 0 1 9.06 13Zm-2.01 0h-4a9 9 0 0 0 6.68 7.71A16.3 16.3 0 0 1 7.05 13Zm7.22 7.71A16.3 16.3 0 0 0 16.95 13h4a9 9 0 0 1-6.68 7.71ZM12 23a11 11 0 1 0 0-22 11 11 0 0 0 0 22Z"/>
  </symbol>
  <symbol id="icon-link" viewBox="0 0 24 24">
    <path fill-rule="evenodd" clip-rule="evenodd"
          d="M11.53 3.9c2.18-2.19 5.7-2.58 8.13-.68a6.06 6.06 0 0 1 .58 9.06L18.8 13.7a1 1 0 0 1-1.42-1.43l1.42-1.42a4.04 4.04 0 0 0-.27-5.95c-1.63-1.36-4.07-1.1-5.57.4L11.7 6.58a1 1 0 0 1-1.42 0c-.4-.4-.4-1.03.17-1.6l1.08-1.08Zm1.76 5.4-4 4a1 1 0 1 0 1.42 1.4l4-4a1 1 0 1 0-1.42-1.4Zm-1.01 8.1-1.27 1.27c-1.5 1.5-3.95 1.75-5.58.4a4.02 4.02 0 0 1-.27-5.94l1.42-1.42a1 1 0 1 0-1.42-1.42l-1.28 1.28a6.15 6.15 0 0 0-.67 8.07 6.06 6.06 0 0 0 9.07.6l1.43-1.42a1 1 0 1 0-1.43-1.42Z"/>
  </symbol>
  <symbol id="icon-filter-settings" viewBox="0 0 20 20">
    <path fill-rule="evenodd" clip-rule="evenodd"
          d="M9.17 15.83a.83.83 0 1 1 0-1.66.83.83 0 0 1 0 1.66m8.33-1.66h-5.99a2.5 2.5 0 0 0-2.34-1.67c-1.09 0-2 .7-2.35 1.67H2.5a.83.83 0 1 0 0 1.66h4.32a2.5 2.5 0 0 0 2.35 1.67c1.08 0 2-.7 2.34-1.67h5.99a.83.83 0 1 0 0-1.66m-1.67-3.34a.83.83 0 1 1 0-1.66.83.83 0 0 1 0 1.66m0-3.33c-1.08 0-2 .7-2.34 1.67H2.5a.83.83 0 1 0 0 1.66h10.99a2.5 2.5 0 1 0 2.34-3.33m-10-3.33a.83.83 0 1 1 0 1.66.83.83 0 0 1 0-1.66M2.5 5.83h.99A2.5 2.5 0 0 0 5.83 7.5c1.09 0 2-.7 2.35-1.67h9.32a.83.83 0 1 0 0-1.66H8.18A2.5 2.5 0 0 0 5.83 2.5c-1.08 0-2 .7-2.34 1.67H2.5a.83.83 0 1 0 0 1.66"/>
  </symbol>
  <symbol id="icon-close" viewBox="0 0 20 20">
    <path fill-rule="evenodd" clip-rule="evenodd"
          d="m11.18 10 3.58-3.58a.83.83 0 1 0-1.18-1.18L10 8.82 6.42 5.24a.83.83 0 1 0-1.18 1.18L8.82 10l-3.58 3.58a.83.83 0 1 0 1.18 1.18L10 11.18l3.58 3.58a.83.83 0 0 0 1.18 0 .83.83 0 0 0 0-1.18L11.18 10Z"/>
  </symbol>
  <symbol id="icon-follow" viewBox="0 0 20 20">
    <path fill-rule="evenodd" clip-rule="evenodd"
          d="M8.33333 9.16667C10.1717 9.16667 11.6667 7.67167 11.6667 5.83333C11.6667 3.995 10.1717 2.5 8.33333 2.5C6.495 2.5 5 3.995 5 5.83333C5 7.67167 6.495 9.16667 8.33333 9.16667ZM17.5 5H16.6667V4.16667C16.6667 3.70833 16.2917 3.33333 15.8333 3.33333C15.375 3.33333 15 3.70833 15 4.16667V5H14.1667C13.7083 5 13.3333 5.375 13.3333 5.83333C13.3333 6.29167 13.7083 6.66667 14.1667 6.66667H15V7.5C15 7.95833 15.375 8.33333 15.8333 8.33333C16.2917 8.33333 16.6667 7.95833 16.6667 7.5V6.66667H17.5C17.9583 6.66667 18.3333 6.29167 18.3333 5.83333C18.3333 5.375 17.9583 5 17.5 5ZM14.1667 16.6667C14.1667 17.1267 13.7942 17.5 13.3333 17.5H3.33333C2.8725 17.5 2.5 17.1267 2.5 16.6667C2.5 13.45 5.1175 10.8333 8.33333 10.8333C11.5492 10.8333 14.1667 13.45 14.1667 16.6667Z"
          fill="currentColor"/>
  </symbol>
  <symbol id="icon-unfollow" viewBox="0 0 20 20">
    <path fill-rule="evenodd" clip-rule="evenodd"
          d="M8.33333 9.16667C10.1717 9.16667 11.6667 7.67167 11.6667 5.83333C11.6667 3.995 10.1717 2.5 8.33333 2.5C6.495 2.5 5 3.995 5 5.83333C5 7.67167 6.495 9.16667 8.33333 9.16667ZM17.5 5H14.1667C13.7083 5 13.3333 5.375 13.3333 5.83333C13.3333 6.29167 13.7083 6.66667 14.1667 6.66667H17.5C17.9583 6.66667 18.3333 6.29167 18.3333 5.83333C18.3333 5.375 17.9583 5 17.5 5ZM14.1667 16.6667C14.1667 17.1267 13.7942 17.5 13.3333 17.5H3.33333C2.8725 17.5 2.5 17.1267 2.5 16.6667C2.5 13.45 5.1175 10.8333 8.33333 10.8333C11.5492 10.8333 14.1667 13.45 14.1667 16.6667Z"
          fill="currentColor"/>
  </symbol>
  <symbol id="icon-three-dots" viewBox="0 0 16 16">
    <circle cx="8" cy="8" r="1.67"/>
    <circle cx="2.33" cy="8" r="1.67"/>
    <circle cx="13.67" cy="8" r="1.67"/>
  </symbol>
  <symbol id="icon-log-out" viewBox="0 0 16 16">
    <path fill-rule="evenodd" clip-rule="evenodd"
          d="M5.334 3.333c0 .366-.3.666-.667.666H4v8h.667c.367 0 .667.3.667.667 0 .367-.3.667-.667.667H3.334a.669.669 0 0 1-.667-.667V3.333c0-.367.3-.667.667-.667h1.333c.367 0 .667.3.667.667Zm6.669 1.616 1.876 2.667a.665.665 0 0 1-.012.783l-2 2.667a.665.665 0 1 1-1.067-.8l1.2-1.6H6.667a.666.666 0 1 1 0-1.333H12c.011 0 .021.003.032.006.008.002.017.005.026.006l-1.146-1.63a.666.666 0 1 1 1.09-.766Z"/>
  </symbol>
  <symbol id="icon-edit" viewBox="0 0 24 24">
    <path fill-rule="evenodd" clip-rule="evenodd"
          d="M16 10.7 13.3 8l2-2L18 8.7l-2 2Zm3.4-3.4-2.7-2.7c-.8-.7-2-.8-2.8 0l-9 9a2 2 0 0 0-.5 1.1L4 19A1 1 0 0 0 5 20l4.3-.4a2 2 0 0 0 1.2-.6l9-9c.7-.7.7-1.9-.1-2.7Z"/>
  </symbol>
  <symbol id="icon-chevron-left" viewBox="0 0 24 24">
    <path fill-rule="evenodd" clip-rule="evenodd"
          d="M14 19a1 1 0 0 0 .77-1.64l-4.48-5.37 4.32-5.36a1 1 0 0 0-1.56-1.26l-4.83 6a1 1 0 0 0 .01 1.27l5 6A1 1 0 0 0 14 19"/>
  </symbol>
  <symbol id="icon-delete" viewBox="0 0 16 16">
    <path fill-rule="evenodd" clip-rule="evenodd"
          d="M6.667 2.885c0-.103.142-.219.333-.219h2c.19 0 .333.116.333.22V4H6.667V2.885ZM14 4h-3.333V2.885c0-.856-.748-1.552-1.667-1.552H7c-.92 0-1.667.696-1.667 1.552V4H2a.67.67 0 0 0-.667.666c0 .367.3.667.667.667h.667v7.333c0 1.104.897 2 2 2h6.666c1.103 0 2-.896 2-2V5.333H14c.367 0 .667-.3.667-.667A.67.67 0 0 0 14 4Z"/>
  </symbol>
  <symbol id="icon-arrow-up" fill="none" viewBox="0 0 16 16">
    <path d="M3.33 8 8 3.33m0 0L12.67 8M8 3.33v9.34" stroke="currentColor"
          stroke-width="1.5" stroke-linecap="round"
          stroke-linejoin="round"/>
  </symbol>
  <symbol id="icon-arrow-left" viewBox="0 0 16 16" fill="none">
    <use href="#icon-arrow-up" transform="rotate(-90, 8, 8)"
         width="16"
         height="16"/>
  </symbol>
  <symbol id="icon-arrow-right" viewBox="0 0 16 16" fill="none">
    <use href="#icon-arrow-up" transform="rotate(90, 8, 8)"
         width="16"
         height="16"/>
  </symbol>
  <symbol id="icon-user-default" fill="none" viewBox="0 0 24 20">
    <circle cx="12" cy="4" r="4" fill="#fff" fill-opacity=".2"/>
    <circle cx="12" cy="4" r="3.25" stroke="#fff" stroke-opacity=".5"
            stroke-width="1.5"/>
    <path
        d="M6.05 12.44A6.51 6.51 0 0 1 11.13 10h1.74c1.98 0 3.85.9 5.08 2.44A4.65 4.65 0 0 1 14.32 20H9.68a4.65 4.65 0 0 1-3.63-7.56Z"
        fill="#fff" fill-opacity=".2"/>
    <path
        d="M6.63 12.91a5.76 5.76 0 0 1 4.5-2.16h1.74c1.75 0 3.4.8 4.5 2.16a3.9 3.9 0 0 1-3.05 6.34H9.68a3.9 3.9 0 0 1-3.05-6.34Z"
        stroke="#fff" stroke-opacity=".5" stroke-width="1.5"/>
  </symbol>
  <symbol id="icon-dropdown-filter-x" viewBox="0 0 24 24"
          fill="none">
    <path d="M6 18 18 6M6 6l12 12" stroke="currentColor" stroke-width="2"
          stroke-linejoin="round"/>
  </symbol>
  <symbol id="icon-transaction-convert" viewBox="0 0 24 24">
    <path fill-rule="evenodd" clip-rule="evenodd"
          d="M5.914 5H17.91c1.98 0 3.59 1.583 3.59 3.529V11a1 1 0 1 1-2 0V8.529C19.5 7.687 18.787 7 17.91 7H5.914l1.293 1.293a1 1 0 0 1-1.414 1.414l-3-3a.999.999 0 0 1 0-1.414l3-3a.999.999 0 1 1 1.414 1.414L5.914 5Zm10.879 9.293a.999.999 0 0 1 1.414 0l3 3a.999.999 0 0 1 0 1.414l-3 3a.997.997 0 0 1-1.414 0 .999.999 0 0 1 0-1.414L18.086 19H6.09c-1.98 0-3.59-1.583-3.59-3.529V13a1 1 0 1 1 2 0v2.471c0 .843.713 1.529 1.59 1.529h11.996l-1.293-1.293a.999.999 0 0 1 0-1.414Z"/>
  </symbol>
  <symbol id="icon-dropdown-filter-status" viewBox="0 0 24 24">
    <path fill-rule="evenodd" clip-rule="evenodd"
          d="M16 11h-3V8a1 1 0 1 0-2 0v4c0 .6.4 1 1 1h4a1 1 0 1 0 0-2m-4 9a8 8 0 1 1 0-16 8 8 0 0 1 0 16m0-18a10 10 0 1 0 0 20 10 10 0 0 0 0-20"/>
  </symbol>
  <symbol id="icon-dropdown-filter-date" viewBox="0 0 24 24">
    <path fill-rule="evenodd" clip-rule="evenodd"
          d="M7 16c0-.6.5-1 1-1 .6 0 1 .4 1 1s-.4 1-1 1a1 1 0 0 1-1-1Zm5-1h4c.6 0 1 .4 1 1s-.4 1-1 1h-4a1 1 0 0 1-1-1c0-.6.4-1 1-1Zm6 5H6a1 1 0 0 1-1-1v-6h14v6c0 .6-.4 1-1 1M6 6h1v1c0 .5.5 1 1 1 .6 0 1-.5 1-1V6h6v1c0 .5.4 1 1 1s1-.5 1-1V6h1c.6 0 1 .4 1 1v4H5V7c0-.6.4-1 1-1m12-2h-1V3c0-.5-.4-1-1-1a1 1 0 0 0-1 1v1H9V3c0-.5-.4-1-1-1a1 1 0 0 0-1 1v1H6a3 3 0 0 0-3 3v12a3 3 0 0 0 3 3h12a3 3 0 0 0 3-3V7a3 3 0 0 0-3-3"/>
  </symbol>
  <symbol id="icon-transaction-send" viewBox="0 0 24 24">
    <path fill-rule="evenodd" clip-rule="evenodd"
          d="M5 13h11.86l-3.63 4.36a1 1 0 1 0 1.54 1.28l5-6 .09-.15.07-.13A.99.99 0 0 0 20 12a.99.99 0 0 0-.07-.36l-.07-.13c-.03-.05-.05-.1-.1-.15l-5-6a1 1 0 0 0-1.53 1.28L16.86 11H5a1 1 0 0 0 0 2"/>
  </symbol>
  <symbol id="icon-transaction-receive" viewBox="0 0 24 24">
    <use href="#icon-transaction-send" transform="rotate(90, 12, 12)" width="24"
         height="24"/>
  </symbol>
  <symbol id="icon-dropdown-filter-chevron-down" fill="none"
          viewBox="0 0 24 24">
    <path d="m8 10 4 4 4-4" stroke="currentColor" stroke-width="1.5"
          stroke-linecap="round"/>
  </symbol>
  <symbol id="icon-dropdown-filter-x" viewBox="0 0 20 20">
    <path fill-rule="evenodd" clip-rule="evenodd"
          d="m11.18 10 3.58-3.58a.83.83 0 1 0-1.18-1.18L10 8.82 6.42 5.24a.83.83 0 1 0-1.18 1.18L8.82 10l-3.58 3.58a.83.83 0 1 0 1.18 1.18L10 11.18l3.58 3.58a.83.83 0 0 0 1.18 0 .83.83 0 0 0 0-1.18L11.18 10Z"/>
  </symbol>
  <symbol id="icon-date-range-clear" viewBox="0 0 24 24" fill="none">
    <path
        d="M9.4 5H21c.6 0 1 .4 1 1v12c0 .6-.4 1-1 1H9.4a1 1 0 0 1-.7-.3l-6-6a1 1 0 0 1 0-1.4l6-6c.2-.2.4-.3.7-.3Z"
        stroke="currentColor" stroke-width="2"/>
    <path d="m11.5 15 6-6M11.5 9l6 6" stroke="currentColor" stroke-width="2"
          stroke-linejoin="round"/>
  </symbol>
  <symbol id="icon-date-range-apply" viewBox="0 0 24 24" fill="none">
    <path d="m3 11 7 7L22 6" stroke="currentColor" stroke-width="2"/>
  </symbol>
  <symbol id="icon-calculator-plus-sign" fill="none" viewBox="0 0 20 20">
    <path d="M10 4.2v11.6M4.2 10h11.6" stroke="currentColor" stroke-width="1.5"
          stroke-linecap="round" stroke-linejoin="round"/>
  </symbol>
  <symbol id="icon-calculator-arrow-down" fill="none" viewBox="0 0 20 20">
    <path d="M10 4.2v11.6M15.8 10 10 15.8 4.2 10" stroke="currentColor"
          stroke-width="1.5" stroke-linecap="round" stroke-linejoin="round"/>
  </symbol>
  <symbol id="icon-spinner-rounded" fill="none" viewBox="0 0 12 12">
    <path d="M4.45 10.76A5 5 0 1 1 11 6" stroke="currentColor" stroke-width="2" stroke-linecap="round"/>
  </symbol>
</svg>
